<?xml version="1.0" standalone="no"?>
<!DOCTYPE svg PUBLIC "-//W3C//DTD SVG 20010904//EN"
 "http://www.w3.org/TR/2001/REC-SVG-20010904/DTD/svg10.dtd">
<svg version="1.0" xmlns="http://www.w3.org/2000/svg"
 width="512.000000pt" height="512.000000pt" viewBox="0 0 512.000000 512.000000"
 preserveAspectRatio="xMidYMid meet">
<metadata>
Created by potrace 1.14, written by Peter Selinger 2001-2017
</metadata>
<g transform="translate(0.000000,512.000000) scale(0.100000,-0.100000)"
fill="#000000" stroke="none">
<path d="M2044 4122 l-382 -2 -16 -35 c-9 -19 -21 -35 -25 -35 -5 0 -12 -12
-16 -27 -4 -16 -15 -36 -26 -46 -11 -10 -17 -22 -14 -28 4 -5 2 -9 -2 -9 -5 0
-20 -21 -33 -47 -14 -27 -27 -50 -30 -53 -15 -15 -50 -71 -50 -80 0 -5 -5 -10
-11 -10 -6 0 -9 -6 -6 -13 3 -7 -4 -19 -14 -26 -11 -6 -17 -16 -14 -21 3 -6 1
-10 -4 -10 -6 0 -11 -5 -11 -11 0 -6 -12 -26 -26 -45 -15 -19 -23 -34 -18 -34
4 0 -3 -11 -16 -25 -13 -14 -20 -25 -15 -25 4 0 -2 -9 -14 -19 -12 -11 -23
-23 -23 -28 -1 -19 -18 -53 -27 -53 -5 0 -11 -10 -15 -23 -3 -12 -14 -32 -26
-45 -11 -12 -21 -25 -22 -29 -5 -27 -11 -43 -18 -43 -4 0 -13 -13 -20 -30 -7
-16 -16 -30 -20 -30 -5 0 -13 -12 -19 -27 -11 -29 -31 -64 -42 -73 -3 -3 -9
-12 -12 -20 -4 -8 -16 -28 -27 -45 -11 -16 -23 -37 -27 -45 -4 -8 -13 -21 -20
-28 -7 -7 -13 -20 -13 -28 0 -8 -4 -14 -10 -14 -5 0 -10 -6 -10 -14 0 -7 -7
-19 -15 -26 -8 -7 -13 -16 -10 -20 3 -4 -2 -10 -10 -14 -8 -3 -15 -15 -15 -26
0 -11 -4 -20 -8 -20 -5 0 -14 -12 -20 -26 -7 -14 -17 -22 -22 -19 -5 3 -7 0
-4 -8 3 -8 -2 -22 -11 -30 -9 -9 -16 -20 -17 -24 -1 -13 -11 -38 -17 -43 -15
-12 -61 -87 -61 -98 0 -7 -4 -12 -10 -12 -5 0 -12 -11 -16 -25 -3 -14 -10 -25
-15 -25 -5 0 -9 -7 -9 -15 0 -7 -8 -19 -17 -24 -10 -6 -15 -11 -11 -11 4 0 -1
-15 -12 -32 -11 -18 -23 -41 -26 -50 -4 -10 -10 -18 -14 -18 -5 0 -19 -20 -31
-45 -12 -25 -26 -45 -31 -45 -4 0 -7 -3 -6 -8 3 -12 -24 -62 -34 -62 -4 0 -8
-5 -8 -10 0 -6 -11 -27 -23 -48 -13 -20 -32 -50 -43 -67 -10 -16 -19 -34 -19
-38 0 -5 -9 -15 -19 -23 -11 -7 -17 -17 -13 -20 3 -4 1 -12 -6 -20 -33 -37
-52 -70 -49 -86 1 -4 -8 -12 -19 -18 -12 -7 -18 -18 -15 -26 3 -8 1 -14 -4
-14 -6 0 -10 -7 -10 -15 0 -9 -6 -18 -14 -21 -8 -3 -17 -16 -20 -30 -4 -13
-11 -24 -16 -24 -6 0 -10 -7 -10 -15 0 -8 -4 -15 -10 -15 -5 0 -9 -3 -8 -7 2
-8 -17 -41 -53 -95 -11 -15 -19 -31 -19 -36 0 -4 -8 -17 -17 -28 -17 -19 -24
-31 -55 -86 -7 -13 -19 -31 -27 -40 -8 -10 -10 -18 -5 -18 5 0 2 -5 -6 -11
-11 -8 -12 -12 -2 -16 6 -2 10 -8 8 -12 -3 -4 4 -7 14 -7 10 0 17 3 15 7 -3 3
14 6 35 5 22 0 40 -5 40 -11 0 -5 4 -4 9 4 8 13 12 13 27 0 11 -9 15 -9 10 -1
-10 16 45 16 63 -1 8 -7 11 -7 8 -1 -5 8 7 11 38 11 25 -1 45 -6 45 -12 0 -5
5 -3 10 5 9 13 11 13 20 0 6 -10 10 -11 10 -2 0 6 9 12 20 12 11 0 20 -6 20
-12 0 -9 3 -9 9 1 8 13 12 13 27 0 10 -8 15 -9 11 -2 -6 9 13 11 73 10 47 -1
80 -6 80 -12 0 -5 4 -4 9 4 8 13 12 13 27 0 11 -9 15 -9 10 -1 -5 8 1 12 21
12 16 0 35 -6 42 -12 8 -8 11 -8 8 -2 -5 8 7 11 38 11 25 -1 45 -6 45 -12 0
-5 5 -3 10 5 9 13 11 13 20 0 6 -10 10 -11 10 -2 0 6 9 12 20 12 11 0 20 -6
20 -12 0 -9 3 -9 9 1 8 13 12 13 27 0 10 -8 15 -9 11 -2 -6 9 13 11 73 10 47
-1 80 -6 80 -12 0 -5 4 -4 9 4 8 13 12 13 27 0 11 -9 15 -9 10 -1 -10 16 45
16 63 0 11 -11 12 -10 6 1 -6 11 -3 13 13 9 15 -4 23 0 27 13 4 11 11 17 16
14 5 -3 6 1 3 9 -3 9 -1 16 6 16 6 0 9 4 6 8 -3 5 9 25 25 45 17 20 28 37 24
37 -4 0 1 7 9 16 9 8 14 20 11 25 -4 5 -2 9 4 9 6 0 18 17 28 38 9 20 20 39
23 42 13 12 40 60 33 60 -5 0 -3 4 2 8 15 11 55 70 55 82 0 5 4 10 9 10 5 0
11 8 15 18 8 24 73 130 86 142 9 7 23 43 22 53 -1 4 2 7 7 7 5 0 20 20 32 45
12 25 26 45 30 45 6 0 10 11 18 45 1 6 9 14 17 18 8 4 14 14 14 21 0 7 9 21
20 31 11 10 17 22 14 26 -3 5 -2 9 3 9 4 0 13 10 19 23 35 68 48 89 59 94 8 2
11 11 8 19 -3 8 0 14 6 14 6 0 11 6 11 14 0 8 11 28 25 44 14 17 32 46 40 66
9 20 19 36 24 36 4 0 16 18 26 40 10 22 21 40 26 40 4 0 10 14 14 30 4 17 11
30 16 30 5 0 14 11 19 25 5 14 14 25 19 25 5 0 12 13 16 30 4 16 16 37 28 45
12 9 21 18 20 20 -4 9 10 40 34 71 12 17 20 34 16 37 -3 4 -1 7 6 7 6 0 16 10
22 23 5 12 16 33 23 46 l14 23 13 -23 c6 -13 15 -26 18 -29 4 -3 12 -16 19
-30 17 -36 35 -64 47 -72 6 -4 6 -8 2 -8 -4 0 3 -15 16 -32 25 -35 41 -68 39
-80 -1 -5 2 -8 7 -8 5 0 20 -20 32 -45 12 -25 26 -45 31 -45 4 0 8 -7 8 -15 0
-8 4 -15 10 -15 5 0 7 -7 4 -15 -4 -8 -1 -15 4 -15 6 0 18 -15 27 -34 34 -72
33 -71 218 -70 92 1 167 -3 167 -7 0 -5 -4 -9 -10 -9 -5 0 -10 -7 -10 -15 0
-7 -8 -19 -17 -24 -10 -6 -15 -11 -11 -11 4 0 -7 -23 -25 -51 -62 -98 -78
-124 -99 -166 -12 -24 -26 -43 -30 -43 -4 0 -8 -6 -8 -14 0 -8 -12 -28 -26
-45 -14 -17 -23 -31 -19 -31 3 0 -4 -15 -17 -32 -13 -18 -23 -36 -23 -39 0 -3
-8 -13 -17 -23 -10 -10 -21 -28 -24 -42 -3 -13 -9 -24 -13 -24 -9 0 -35 -51
-33 -62 1 -5 -2 -8 -6 -8 -5 0 -17 -17 -28 -38 -10 -20 -21 -39 -24 -42 -15
-15 -50 -71 -50 -80 0 -5 -5 -10 -11 -10 -6 0 -9 -5 -7 -12 2 -6 -2 -19 -9
-27 -27 -31 -83 -121 -76 -121 5 0 1 -6 -7 -13 -8 -7 -26 -32 -39 -57 -14 -25
-29 -48 -35 -52 -6 -4 -7 -8 -3 -8 5 0 1 -7 -8 -16 -19 -20 -14 -40 10 -36 11
2 14 -1 10 -8 -6 -9 -2 -9 14 -1 16 9 21 9 21 -1 0 -10 2 -10 8 0 10 14 62 12
62 -3 0 -5 4 -4 9 4 8 13 12 13 27 0 11 -9 15 -9 10 -1 -10 16 45 16 63 -1 8
-6 11 -7 8 -1 -4 7 14 11 58 11 39 -1 65 -5 65 -11 0 -6 4 -5 9 3 8 13 12 13
27 0 11 -9 15 -9 10 -1 -5 9 7 12 53 10 34 -1 61 -7 61 -13 0 -5 4 -4 9 4 8
13 12 13 27 0 11 -9 15 -9 10 -1 -5 9 7 12 53 10 34 -1 61 -7 61 -13 0 -5 4
-4 9 4 8 13 12 13 27 0 11 -9 15 -9 10 -1 -5 9 7 12 53 10 34 -1 61 -7 61 -13
0 -5 4 -4 9 4 8 13 12 13 27 0 11 -9 15 -9 10 -1 -5 9 7 12 53 10 34 -1 61 -7
61 -13 0 -5 4 -4 9 4 8 13 12 13 27 0 11 -9 15 -9 10 -1 -5 9 7 12 53 10 34
-1 61 -7 61 -13 0 -5 4 -4 9 4 5 8 16 11 25 8 10 -4 16 -1 16 8 0 8 5 15 10
15 6 0 10 7 10 15 0 8 5 15 11 15 5 0 7 4 4 10 -3 5 3 15 14 21 10 7 17 19 14
26 -3 7 0 13 6 13 6 0 11 6 11 14 0 8 4 16 9 18 5 2 11 10 13 18 5 21 22 39
32 32 5 -3 6 0 3 5 -8 12 20 73 33 73 4 0 11 12 15 27 3 15 10 30 13 33 13 10
52 69 52 80 0 5 5 10 12 10 6 0 9 3 5 6 -3 4 5 21 18 39 14 17 25 36 25 42 0
9 10 23 50 70 5 7 10 17 10 23 0 5 5 10 11 10 5 0 8 4 4 10 -3 5 3 18 15 30
11 11 20 22 20 25 1 15 16 41 28 51 8 6 12 16 8 22 -4 7 -1 12 9 12 9 0 13 5
10 11 -4 5 3 19 16 30 12 10 19 19 15 19 -4 0 3 15 16 33 33 46 46 67 62 105
8 18 22 35 30 38 8 3 12 12 9 20 -3 8 -1 14 3 14 5 0 15 13 22 28 6 16 22 39
35 52 12 14 20 25 19 25 -7 0 22 55 29 55 4 0 10 14 14 30 4 17 11 30 16 30 5
0 17 17 27 38 9 20 22 40 28 44 7 4 15 19 18 33 4 14 11 23 16 20 6 -3 10 2
10 13 0 10 12 32 27 48 15 16 25 31 23 32 -4 5 63 116 72 120 5 2 8 10 8 17 0
8 8 20 18 27 9 7 17 18 17 23 0 15 43 93 55 100 6 4 8 11 5 16 -4 5 -1 9 4 9
6 0 11 7 11 15 0 8 5 15 10 15 6 0 10 4 10 10 0 5 16 34 35 64 19 30 35 60 35
66 0 5 4 10 9 10 5 0 16 15 25 33 9 17 26 46 36 62 11 17 29 47 40 68 11 20
25 37 31 37 6 0 7 5 4 10 -3 6 1 13 9 16 9 3 14 10 11 14 -5 8 22 54 76 132
11 15 19 32 19 38 0 5 5 10 11 10 5 0 7 5 4 10 -3 6 -2 10 3 10 5 0 17 16 26
35 9 19 21 37 26 40 6 4 8 11 5 16 -4 5 -2 9 3 9 5 0 15 14 22 30 7 17 16 30
21 30 5 0 9 7 9 15 0 8 8 23 18 33 9 10 18 24 20 31 1 7 9 20 17 28 33 33 12
47 -65 42 -8 0 -37 0 -65 0 -27 0 -57 0 -65 0 -8 0 -52 1 -98 3 -45 2 -82 0
-82 -4 0 -4 -9 -4 -19 0 -11 4 -199 6 -419 4 l-399 -2 -19 -35 c-10 -19 -22
-35 -25 -35 -4 0 -10 -11 -13 -25 -4 -14 -15 -34 -26 -45 -11 -11 -20 -23 -21
-27 -1 -10 -61 -117 -69 -123 -4 -3 -15 -21 -26 -40 -10 -19 -21 -37 -24 -40
-5 -5 -25 -38 -44 -75 -6 -11 -21 -35 -34 -53 -13 -17 -20 -32 -16 -32 4 0 -3
-11 -16 -25 -13 -14 -20 -25 -17 -25 4 0 -2 -9 -13 -20 -11 -11 -22 -31 -26
-45 -3 -14 -9 -25 -14 -25 -4 0 -15 -18 -25 -40 -10 -22 -21 -40 -24 -40 -3 0
-15 -18 -25 -40 -11 -22 -23 -40 -27 -40 -7 0 -45 59 -46 74 -1 5 -5 12 -10
15 -10 7 -29 36 -49 76 -8 17 -28 50 -44 75 -16 25 -35 56 -42 70 -7 14 -15
27 -19 30 -3 3 -14 21 -24 40 -10 19 -21 37 -24 40 -4 3 -15 22 -24 43 -10 20
-22 37 -27 37 -6 0 -10 9 -10 20 0 11 -5 20 -11 20 -5 0 -7 5 -4 10 3 6 2 10
-3 10 -4 0 -19 20 -31 45 -12 25 -27 45 -32 45 -5 0 -9 6 -9 14 0 7 -12 31
-26 52 -15 21 -27 45 -28 52 -2 7 -8 17 -16 22 -7 4 -10 15 -7 24 5 13 -3 16
-51 17 -31 1 -60 1 -64 0 -31 -4 -334 -3 -347 2 -3 1 -178 1 -387 -1z"/>
</g>
</svg>
